# xmcd
#
# Track frame offsets: 
#        150
#        20317
#        36055
#        53568
#        69102
#        88672
#        103613
#        120053
#        134427
#        149650
#        170139
#        187344
#
# Disc length: 2883 seconds
#
# Revision: 0
# Processed by: cddbd v1.5.2PL0 Copyright (c) Steve Scherf et al.
# Submitted via: ExactAudioCopy v1.0b4
#
DISCID=a20b410c
DTITLE=Mike Goudreau - Je Reste Accroché
DYEAR=2015
DGENRE=Blues
TTITLE0=Envoi Ma Belle
TTITLE1=Je Reste Accroché
TTITLE2=Arrete De Boire
TTITLE3=Melon D'eau Boogaloo
TTITLE4=Ils Vont Passer Les Mauvais Jours
TTITLE5=Affreuse Jalousie
TTITLE6=Mon Coeur Brise
TTITLE7=Joyeux Anniversaire
TTITLE8=Les Gens Tristes
TTITLE9=Le Cimetiere Me Court Apres
TTITLE10=L'herbe Est Pas Plus Verte
TTITLE11=C'était Un Peu Trop Beau
EXTD=
EXTT0=
EXTT1=
EXTT2=
EXTT3=
EXTT4=
EXTT5=
EXTT6=
EXTT7=
EXTT8=
EXTT9=
EXTT10=
EXTT11=
PLAYORDER=
